<svg xmlns="http://www.w3.org/2000/svg" version="1.1"  view="0 0 100 100" width="100" height="80">
	<g>
		<path style="opacity:0.96" fill="#f4b053" d="M 45.5,-0.5 C 47.8333,-0.5 50.1667,-0.5 52.5,-0.5C 60.5,4.5 68.5,9.5 76.5,14.5C 71.4532,14.9224 66.4532,15.5891 61.5,16.5C 62.5981,15.603 62.5981,14.7697 61.5,14C 57.7447,11.2051 53.578,9.37176 49,8.5C 43.9198,9.45674 39.4198,11.6234 35.5,15C 36.4158,15.2784 37.0825,15.7784 37.5,16.5C 32.0019,16.0475 26.6686,15.3809 21.5,14.5C 29.5,9.5 37.5,4.5 45.5,-0.5 Z"/>
	</g>
	<g>
		<path style="opacity:1" fill="#f3a43c" d="M 61.5,16.5 C 56.4932,16.7509 51.4932,17.0843 46.5,17.5C 43.5176,17.0371 40.5176,16.7038 37.5,16.5C 37.0825,15.7784 36.4158,15.2784 35.5,15C 39.4198,11.6234 43.9198,9.45674 49,8.5C 53.578,9.37176 57.7447,11.2051 61.5,14C 62.5981,14.7697 62.5981,15.603 61.5,16.5 Z"/>
	</g>
	<g>
		<path style="opacity:0.977" fill="#84bf42" d="M 21.5,14.5 C 26.6686,15.3809 32.0019,16.0475 37.5,16.5C 40.5176,16.7038 43.5176,17.0371 46.5,17.5C 36.0494,19.2775 25.3827,20.2775 14.5,20.5C 14.9422,24.1545 15.2756,27.8212 15.5,31.5C 15.5,32.5 15.5,33.5 15.5,34.5C 8.89131,32.4861 6.89131,28.1527 9.5,21.5C 9.5,18.8333 9.5,16.1667 9.5,13.5C 13.5483,13.3946 17.5483,13.7279 21.5,14.5 Z"/>
	</g>
	<g>
		<path style="opacity:1" fill="#fcf3dd" d="M 89.5,21.5 C 89.6646,24.5184 89.498,27.5184 89,30.5C 87.6703,31.5822 86.1703,32.2488 84.5,32.5C 76.8341,32.7396 69.6674,32.4063 63,31.5C 60,32.1667 57,32.8333 54,33.5C 51.7287,31.5663 49.7287,31.5663 48,33.5C 47.6667,32.8333 47.3333,32.1667 47,31.5C 36.664,32.1611 26.164,32.1611 15.5,31.5C 15.2756,27.8212 14.9422,24.1545 14.5,20.5C 25.3827,20.2775 36.0494,19.2775 46.5,17.5C 51.4932,17.0843 56.4932,16.7509 61.5,16.5C 66.4532,15.5891 71.4532,14.9224 76.5,14.5C 80.4517,13.7279 84.4517,13.3946 88.5,13.5C 89.0916,16.1272 89.4249,18.7938 89.5,21.5 Z"/>
	</g>
	<g>
		<path style="opacity:1" fill="#f5b968" d="M 9.5,21.5 C 6.89131,28.1527 8.89131,32.4861 15.5,34.5C 26.1557,40.6619 37.1557,45.9952 48.5,50.5C 32.0727,59.2161 15.7394,68.2161 -0.5,77.5C -0.5,60.5 -0.5,43.5 -0.5,26.5C 2.85013,24.8039 6.18346,23.1373 9.5,21.5 Z"/>
	</g>
	<g>
		<path style="opacity:1" fill="#f5a84f" d="M 89.5,21.5 C 92.3388,23.4203 95.3388,25.0869 98.5,26.5C 98.5,41.5 98.5,56.5 98.5,71.5C 83.6687,65.5559 69.002,59.2226 54.5,52.5C 53.1667,52.5 52.5,51.8333 52.5,50.5C 63.1667,44.5 73.8333,38.5 84.5,32.5C 86.1703,32.2488 87.6703,31.5822 89,30.5C 89.498,27.5184 89.6646,24.5184 89.5,21.5 Z"/>
	</g>
	<g>
		<path style="opacity:1" fill="#fbead4" d="M 15.5,31.5 C 26.164,32.1611 36.664,32.1611 47,31.5C 47.3333,32.1667 47.6667,32.8333 48,33.5C 49.7287,31.5663 51.7287,31.5663 54,33.5C 57,32.8333 60,32.1667 63,31.5C 69.6674,32.4063 76.8341,32.7396 84.5,32.5C 73.8333,38.5 63.1667,44.5 52.5,50.5C 51.1667,50.5 49.8333,50.5 48.5,50.5C 37.1557,45.9952 26.1557,40.6619 15.5,34.5C 15.5,33.5 15.5,32.5 15.5,31.5 Z"/>
	</g>
	<g>
		<path style="opacity:0.999" fill="#f5b054" d="M 48.5,50.5 C 49.8333,50.5 51.1667,50.5 52.5,50.5C 52.5,51.8333 53.1667,52.5 54.5,52.5C 68.8065,61.3241 83.4731,69.6574 98.5,77.5C 98.5,78.1667 98.5,78.8333 98.5,79.5C 65.5,79.5 32.5,79.5 -0.5,79.5C -0.5,78.8333 -0.5,78.1667 -0.5,77.5C 15.7394,68.2161 32.0727,59.2161 48.5,50.5 Z"/>
	</g>
	<g>
		<path style="opacity:1" fill="#e78a39" d="M 54.5,52.5 C 69.002,59.2226 83.6687,65.5559 98.5,71.5C 98.5,73.5 98.5,75.5 98.5,77.5C 83.4731,69.6574 68.8065,61.3241 54.5,52.5 Z"/>
	</g>
</svg>
