<svg xmlns="http://www.w3.org/2000/svg" version="1.1" xmlns:xlink="http://www.w3.org/1999/xlink" viewBox="0 -10 100 100" fill="#fff">
    <g>
        <path style="opacity:1" d="M -0.5,-0.5 C 22.1667,-0.5 44.8333,-0.5 67.5,-0.5C 67.5,3.5 67.5,7.5 67.5,11.5C 44.8333,11.5 22.1667,11.5 -0.5,11.5C -0.5,7.5 -0.5,3.5 -0.5,-0.5 Z"/>
    </g>
    <g>
        <path style="opacity:1" d="M -0.5,33.5 C 33.5,33.5 67.5,33.5 101.5,33.5C 101.5,37.5 101.5,41.5 101.5,45.5C 67.5,45.5 33.5,45.5 -0.5,45.5C -0.5,41.5 -0.5,37.5 -0.5,33.5 Z"/>
    </g>
    <g>
        <path style="opacity:1" d="M 101.5,67.5 C 101.5,71.5 101.5,75.5 101.5,79.5C 78.8333,79.5 56.1667,79.5 33.5,79.5C 33.5,75.5 33.5,71.5 33.5,67.5C 56.1667,67.5 78.8333,67.5 101.5,67.5 Z"/>
    </g>
</svg>
